# xmcd
#
# Track frame offsets: 
#        150
#        19639
#        39070
#        57612
#        75668
#        98903
#        118860
#        136638
#        153117
#        168382
#        183316
#        200060
#
# Disc length: 2875 seconds
#
# Revision: 0
# Processed by: cddbd v1.5.2PL0 Copyright (c) Steve Scherf et al.
# Submitted via: ExactAudioCopy v0.95a5
#
DISCID=920b390c
DTITLE=Bruno Mars - It Will Rain
DYEAR=1900
DGENRE=Rap and Hip-Hop
TTITLE0=It Will Rain
TTITLE1=All She Knows
TTITLE2=Grenade (Acoustic)
TTITLE3=Just the Way You Are(Remix)
TTITLE4=Lighters (Feat. Royce Da 5'9)
TTITLE5=This One Is For You (Feat. B.O.B )
TTITLE6=Never Say U Can't
TTITLE7=Rocketeer£¨Feat. Far East Movement)
TTITLE8=Lost
TTITLE9=Rest
TTITLE10=Faded
TTITLE11=Ladies Is Pimps To
EXTD=
EXTT0=
EXTT1=
EXTT2=
EXTT3=
EXTT4=
EXTT5=
EXTT6=
EXTT7=
EXTT8=
EXTT9=
EXTT10=
EXTT11=
PLAYORDER=
